<?xml version="1.0" encoding="utf-8"?>
<!-- Generator: Adobe Illustrator 15.0.2, SVG Export Plug-In  -->
<!DOCTYPE svg PUBLIC "-//W3C//DTD SVG 1.1//EN" "http://www.w3.org/Graphics/SVG/1.1/DTD/svg11.dtd" [
	<!ENTITY ns_flows "http://ns.adobe.com/Flows/1.0/">
]>
<svg version="1.1"
	 xmlns="http://www.w3.org/2000/svg" xmlns:xlink="http://www.w3.org/1999/xlink" xmlns:a="http://ns.adobe.com/AdobeSVGViewerExtensions/3.0/"
	 x="0px" y="0px" width="400px" height="400px" viewBox="-1.303 -2.938 400 400"
	 overflow="visible" enable-background="new -1.303 -2.938 400 400" xml:space="preserve">
<defs>
</defs>
<path display="none" fill="#51B748" d="M160.588,134.053c0,9.05-6.697,16.373-17.69,16.373c-10.353,0-17.025-7.323-17.025-16.373
	c0-9.266,6.901-16.386,17.459-16.386C153.891,117.667,160.357,124.787,160.588,134.053z M126.717,268.783V163.375h32.797v105.409
	H126.717z"/>
<path display="none" fill="#51B748" d="M179.096,196.99c0-13.14-0.409-24.132-0.869-33.616h28.477l1.51,14.647h0.639
	c4.32-6.915,14.878-17.025,32.541-17.025c21.576,0,37.731,14.443,37.731,45.477v62.31h-32.771v-58.424
	c0-13.587-4.729-22.853-16.591-22.853c-9.075,0-14.443,6.262-16.82,12.295c-0.869,2.146-1.074,5.164-1.074,8.18v60.802h-32.771
	V196.99z"/>
<g display="none">
	<path display="inline" fill="#51B748" d="M199.597,1c26.373,0,51.954,5.164,76.034,15.348c23.26,9.837,44.148,23.92,62.086,41.857
		c17.938,17.938,32.021,38.827,41.857,62.086c10.184,24.08,15.348,49.662,15.348,76.034c0,26.366-5.164,51.944-15.348,76.023
		c-9.837,23.259-23.92,44.147-41.857,62.087c-17.938,17.94-38.827,32.025-62.086,41.863c-24.081,10.187-49.662,15.352-76.034,15.352
		c-26.365,0-51.943-5.165-76.023-15.352c-23.258-9.839-44.147-23.924-62.087-41.863s-32.025-38.829-41.864-62.087
		C9.437,248.269,4.272,222.69,4.272,196.325c0-26.371,5.165-51.953,15.351-76.034c9.839-23.259,23.924-44.148,41.864-62.086
		c17.939-17.938,38.828-32.02,62.087-41.857C147.653,6.164,173.231,1,199.597,1 M199.597,0C91.184,0,3.272,87.887,3.272,196.325
		c0,108.413,87.912,196.325,196.325,196.325c108.439,0,196.325-87.912,196.325-196.325C395.922,87.887,308.036,0,199.597,0
		L199.597,0z"/>
</g>
<path fill="#51B748" d="M284.326,157.7c-6.646,2.914-13.766,4.908-21.256,5.802c7.656-4.576,13.511-11.835,16.284-20.476
	c-7.157,4.244-15.057,7.312-23.531,8.973c-6.736-7.183-16.348-11.682-26.981-11.682c-20.438,0-37.016,16.565-37.016,37.015
	c0,2.889,0.319,5.727,0.958,8.436c-30.752-1.56-58.041-16.284-76.267-38.677c-3.183,5.471-5.011,11.811-5.011,18.61
	c0,12.833,6.519,24.158,16.463,30.804c-6.071-0.179-11.772-1.866-16.757-4.627c-0.013,0.154-0.013,0.281-0.013,0.46
	c0,17.919,12.756,32.9,29.679,36.299c-3.106,0.818-6.378,1.278-9.726,1.278c-2.403,0-4.717-0.229-6.992-0.664
	c4.717,14.698,18.394,25.409,34.574,25.717c-12.653,9.918-28.618,15.849-45.95,15.849c-2.991,0-5.944-0.18-8.832-0.536
	c16.374,10.506,35.827,16.641,56.725,16.641c68.074,0,105.281-56.417,105.281-105.32c0-1.585-0.038-3.17-0.102-4.78
	C273.104,171.606,279.367,165.087,284.326,157.7z"/>
<g>
	<path fill="#51B748" d="M198.511,1c26.366,0,51.944,5.164,76.023,15.348c23.259,9.837,44.147,23.92,62.087,41.857
		c17.94,17.938,32.025,38.828,41.863,62.086c10.187,24.081,15.352,49.663,15.352,76.034c0,26.365-5.165,51.943-15.352,76.023
		c-9.839,23.258-23.924,44.147-41.863,62.087s-38.829,32.024-62.087,41.863c-24.08,10.187-49.658,15.352-76.023,15.352
		c-26.371,0-51.953-5.165-76.034-15.352c-23.259-9.838-44.148-23.923-62.086-41.863c-17.938-17.939-32.02-38.828-41.857-62.087
		C8.349,248.27,3.186,222.691,3.186,196.325c0-26.372,5.164-51.954,15.348-76.034c9.837-23.26,23.92-44.148,41.857-62.086
		c17.938-17.938,38.827-32.021,62.086-41.857C146.557,6.164,172.139,1,198.511,1 M198.511,0C90.072,0,2.186,87.887,2.186,196.325
		c0,108.413,87.887,196.325,196.325,196.325c108.413,0,196.325-87.912,196.325-196.325C394.836,87.887,306.924,0,198.511,0
		L198.511,0z"/>
</g>
<g display="none">
	<path display="inline" fill="#51B748" d="M196.325,1c26.369,0,51.949,5.164,76.028,15.348c23.26,9.837,44.148,23.92,62.087,41.857
		c17.938,17.938,32.022,38.827,41.86,62.086c10.186,24.081,15.35,49.662,15.35,76.034c0,26.366-5.164,51.943-15.35,76.023
		c-9.838,23.258-23.922,44.147-41.86,62.087c-17.939,17.94-38.828,32.024-62.087,41.863c-24.08,10.187-49.66,15.352-76.028,15.352
		c-26.369,0-51.948-5.165-76.028-15.352c-23.259-9.839-44.148-23.923-62.087-41.863c-17.938-17.939-32.022-38.829-41.861-62.087
		C6.164,248.269,1,222.691,1,196.325c0-26.372,5.164-51.953,15.35-76.034c9.837-23.259,23.921-44.148,41.86-62.086
		c17.938-17.938,38.827-32.021,62.086-41.857C144.376,6.164,169.956,1,196.325,1 M196.325,0C87.899,0,0,87.887,0,196.325
		C0,304.738,87.899,392.65,196.325,392.65c108.426,0,196.325-87.912,196.325-196.325C392.65,87.887,304.751,0,196.325,0L196.325,0z"
		/>
</g>
<path display="none" fill="#51B748" d="M113.398,149.825c4.819,2.557,71.527,38.396,74.005,39.726
	c2.48,1.355,5.688,1.968,8.935,1.968c3.247,0,6.455-0.613,8.935-1.968c2.492-1.33,69.174-37.169,74.005-39.726
	c4.832-2.607,9.382-10.736,0.538-10.736H112.862C104.017,139.089,108.58,147.218,113.398,149.825z M281.323,169.535
	c-5.458,2.863-72.689,38.013-76.051,39.75c-3.362,1.765-5.688,1.994-8.935,1.994c-3.246,0-5.585-0.229-8.935-1.994
	c-3.362-1.737-70.554-36.887-76.037-39.75c-3.873-1.994-3.835,0.357-3.835,2.172c0,1.815,0,72.37,0,72.37
	c0,4.142,5.509,9.458,9.792,9.458h158.005c4.308,0,9.791-5.316,9.791-9.458c0,0,0-70.554,0-72.37
	C285.119,169.893,285.171,167.542,281.323,169.535z"/>
<path display="none" fill="#51B748" d="M196.454,172.743c-13.549-24.08-28.069-43.764-29.118-45.183
	c-21.882,10.314-38.217,30.471-43.304,54.782C126.09,182.381,158.799,182.751,196.454,172.743z M206.219,199.086
	c1.048-0.294,2.044-0.613,3.093-0.921c-1.969-4.447-4.116-8.933-6.365-13.317c-40.391,12.091-79.144,11.223-80.524,11.184
	c-0.025,0.818-0.051,1.649-0.051,2.467c0,20.195,7.618,38.562,20.119,52.455c-0.039-0.038-0.051-0.076-0.051-0.076
	S163.886,212.801,206.219,199.086z M152.586,260.336v-0.013c-0.588-0.474-1.202-0.882-1.764-1.343
	C151.846,259.799,152.586,260.336,152.586,260.336z M181.997,122.345c-0.051,0.025-0.141,0.052-0.141,0.052
	c0.064-0.026,0.141-0.026,0.141-0.026V122.345z M252.603,139.613c-13.816-12.155-31.941-19.556-51.804-19.556
	c-6.365,0-12.551,0.792-18.482,2.225c1.189,1.572,15.926,21.141,29.321,45.733C241.215,156.945,252.398,139.945,252.603,139.613z
	 M200.799,290.347c-50.73,0-91.848-41.144-91.848-91.849c0-50.73,41.118-91.849,91.848-91.849c50.742,0,91.848,41.119,91.848,91.849
	C292.646,249.203,251.541,290.347,200.799,290.347z M214.143,211.356c-46.04,16.027-61.223,48.302-61.556,48.967
	c13.318,10.391,30.037,16.629,48.212,16.629c10.877,0,21.217-2.225,30.625-6.213c-1.164-6.876-5.739-30.905-16.758-59.575
	C214.488,211.216,214.297,211.292,214.143,211.356z M217.684,179.722c1.827,3.746,3.579,7.542,5.202,11.376
	c0.562,1.354,1.124,2.709,1.699,4.051c27.098-3.399,53.76,2.377,54.642,2.582c-0.191-18.635-6.851-35.686-17.843-49.068
	C261.23,148.919,248.641,167.068,217.684,179.722z M229.353,207.535c10.303,28.312,14.495,51.343,15.262,56.009
	c17.639-11.888,30.14-30.74,33.642-52.622C276.67,210.449,254.737,203.458,229.353,207.535z"/>
<g display="none">
	<path display="inline" fill="#51B748" d="M200.696,1c26.366,0,51.944,5.164,76.023,15.348c23.259,9.837,44.148,23.92,62.087,41.857
		c17.94,17.938,32.025,38.828,41.863,62.086c10.187,24.081,15.352,49.662,15.352,76.034c0,26.365-5.165,51.943-15.351,76.023
		c-9.839,23.258-23.924,44.147-41.864,62.087c-17.939,17.939-38.828,32.024-62.087,41.863
		c-24.08,10.187-49.658,15.352-76.023,15.352c-26.371,0-51.953-5.165-76.034-15.352c-23.259-9.838-44.147-23.923-62.086-41.863
		c-17.938-17.939-32.021-38.828-41.857-62.087C10.535,248.27,5.372,222.691,5.372,196.325c0-26.372,5.164-51.954,15.348-76.034
		c9.837-23.26,23.92-44.148,41.857-62.086c17.938-17.938,38.827-32.021,62.086-41.857C148.743,6.164,174.324,1,200.696,1 M200.696,0
		C92.258,0,4.372,87.887,4.372,196.325c0,108.413,87.886,196.325,196.325,196.325c108.414,0,196.325-87.912,196.325-196.325
		C397.021,87.887,309.11,0,200.696,0L200.696,0z"/>
</g>
<path display="none" fill="#51B748" d="M236.726,261.991c-6.182,2.938-11.776,5.008-16.782,6.208
	c-5.007,1.188-10.422,1.787-16.271,1.787c-6.59,0-12.44-0.868-17.523-2.541c-5.084-1.699-9.4-4.1-13.002-7.216
	c-3.576-3.13-6.079-6.463-7.459-10.001c-1.379-3.512-2.069-8.634-2.069-15.313v-51.343h-15.99v-20.703
	c5.671-1.853,10.55-4.535,14.585-8.047c4.062-3.474,7.307-7.663,9.783-12.554c2.452-4.892,4.114-11.112,5.033-18.647h20.588v36.987
	h34.332v22.964h-34.332v37.537c0,8.493,0.435,13.936,1.329,16.361c0.895,2.39,2.528,4.316,4.93,5.747
	c3.219,1.942,6.871,2.913,11.01,2.913c7.306,0,14.586-2.415,21.84-7.216V261.991z"/>
<g display="none">
	<path display="inline" fill="#51B748" d="M200.913,1.626c26.347,0,51.904,5.16,75.966,15.336
		c23.241,9.83,44.114,23.902,62.04,41.826c17.927,17.925,32.001,38.798,41.832,62.04c10.179,24.063,15.34,49.625,15.34,75.977
		c0,26.345-5.161,51.904-15.34,75.965c-9.831,23.24-23.905,44.114-41.832,62.04c-17.926,17.927-38.8,32.001-62.04,41.832
		c-24.062,10.179-49.62,15.34-75.966,15.34c-26.352,0-51.914-5.161-75.977-15.34c-23.241-9.831-44.114-23.905-62.039-41.832
		c-17.924-17.926-31.996-38.799-41.826-62.04C10.896,248.709,5.736,223.15,5.736,196.804c0-26.353,5.16-51.915,15.336-75.977
		c9.83-23.242,23.901-44.115,41.826-62.04c17.924-17.924,38.797-31.996,62.039-41.826C148.999,6.786,174.561,1.626,200.913,1.626
		 M200.913,0.626C92.556,0.626,4.736,88.446,4.736,196.804c0,108.331,87.82,196.177,196.177,196.177
		c108.331,0,196.178-87.847,196.178-196.177C397.091,88.446,309.244,0.626,200.913,0.626L200.913,0.626z"/>
</g>
</svg>
